<svg xmlns="http://www.w3.org/2000/svg" style="display:none">
  <symbol id="icon-construction" viewBox="0 0 48 48">
    <rect x="4" y="36" width="40" height="6" rx="1" fill="currentColor"/>
    <rect x="10" y="20" width="4" height="16" fill="currentColor"/>
    <rect x="34" y="20" width="4" height="16" fill="currentColor"/>
    <rect x="18" y="26" width="12" height="10" fill="currentColor" opacity="0.6"/>
    <polygon points="24,6 6,20 42,20" fill="currentColor"/>
    <rect x="20" y="10" width="8" height="3" fill="white" opacity="0.5"/>
  </symbol>
  <symbol id="icon-maintenance" viewBox="0 0 48 48">
    <circle cx="24" cy="24" r="8" fill="none" stroke="currentColor" stroke-width="3"/>
    <path d="M24 4 L24 12 M24 36 L24 44 M4 24 L12 24 M36 24 L44 24" stroke="currentColor" stroke-width="3" stroke-linecap="round"/>
    <path d="M10.1 10.1 L15.8 15.8 M32.2 32.2 L37.9 37.9 M10.1 37.9 L15.8 32.2 M32.2 15.8 L37.9 10.1" stroke="currentColor" stroke-width="3" stroke-linecap="round"/>
    <circle cx="24" cy="24" r="3" fill="currentColor"/>
  </symbol>
  <symbol id="icon-it" viewBox="0 0 48 48">
    <rect x="6" y="8" width="36" height="24" rx="2" fill="none" stroke="currentColor" stroke-width="3"/>
    <line x1="16" y1="40" x2="32" y2="40" stroke="currentColor" stroke-width="3" stroke-linecap="round"/>
    <line x1="24" y1="32" x2="24" y2="40" stroke="currentColor" stroke-width="3"/>
    <polyline points="14,22 20,16 26,22 32,14" stroke="currentColor" stroke-width="2.5" fill="none" stroke-linecap="round" stroke-linejoin="round"/>
  </symbol>
  <symbol id="icon-supply" viewBox="0 0 48 48">
    <rect x="8" y="20" width="32" height="22" rx="2" fill="none" stroke="currentColor" stroke-width="3"/>
    <path d="M16 20 L16 14 C16 10 20 6 24 6 C28 6 32 10 32 14 L32 20" fill="none" stroke="currentColor" stroke-width="3"/>
    <line x1="8" y1="30" x2="40" y2="30" stroke="currentColor" stroke-width="2.5"/>
    <circle cx="19" cy="35" r="3" fill="currentColor"/>
    <circle cx="29" cy="35" r="3" fill="currentColor"/>
  </symbol>
  <symbol id="icon-cleaning" viewBox="0 0 48 48">
    <path d="M10 42 L18 10 L30 10 L38 42" fill="none" stroke="currentColor" stroke-width="3" stroke-linejoin="round"/>
    <line x1="8" y1="42" x2="40" y2="42" stroke="currentColor" stroke-width="3" stroke-linecap="round"/>
    <ellipse cx="24" cy="10" rx="8" ry="4" fill="currentColor" opacity="0.5"/>
    <path d="M26 24 Q32 28 28 34 Q24 40 30 42" fill="none" stroke="currentColor" stroke-width="2" stroke-linecap="round" opacity="0.7"/>
    <path d="M20 18 Q26 22 22 28" fill="none" stroke="currentColor" stroke-width="2" stroke-linecap="round" opacity="0.5"/>
  </symbol>
  <symbol id="icon-freight" viewBox="0 0 48 48">
    <path d="M4 30 L4 20 L28 20 L28 36 L4 36 Z" fill="none" stroke="currentColor" stroke-width="3"/>
    <path d="M28 24 L36 24 L44 30 L44 36 L28 36 Z" fill="none" stroke="currentColor" stroke-width="3"/>
    <circle cx="12" cy="38" r="4" fill="currentColor"/>
    <circle cx="36" cy="38" r="4" fill="currentColor"/>
    <line x1="4" y1="26" x2="28" y2="26" stroke="currentColor" stroke-width="2" opacity="0.4"/>
  </symbol>
  <symbol id="icon-consulting" viewBox="0 0 48 48">
    <circle cx="24" cy="16" r="10" fill="none" stroke="currentColor" stroke-width="3"/>
    <path d="M8 44 C8 36 14 30 24 30 C34 30 40 36 40 44" fill="none" stroke="currentColor" stroke-width="3" stroke-linecap="round"/>
    <line x1="24" y1="12" x2="24" y2="20" stroke="currentColor" stroke-width="2.5" stroke-linecap="round"/>
    <circle cx="24" cy="23" r="1.5" fill="currentColor"/>
  </symbol>
</svg>
